<svg version="1.2" xmlns="http://www.w3.org/2000/svg" viewBox="0 0 984 950" width="984" height="950">
	<title>Nouveau projet</title>
	<style>
		.s0 { fill: #015f5a } 
		.s1 { fill: #ffffff } 
		.s2 { fill: #ffaf38 } 
		.s3 { display: none;fill: #015f5a } 
	</style>
	<path id="Forme 2" class="s0" d="m14 364c0-193.3 156.7-350 350-350h609v570.5c0 193.3-156.7 350-350 350h-609z"/>
	<path id="Forme 1" class="s1" d="m507.4 871.4c-219.2 0-396.4-177.2-396.4-396.4 0-219.2 177.2-396.3 396.4-396.3 219.2 0 396.3 177.1 396.3 396.3 0 219.2-177.1 396.4-396.3 396.4z"/>
	<path id="Forme 1 copy" class="s2" d="m473.5 871.4c-219.2 0-396.4-177.2-396.4-396.4 0-219.2 177.2-396.3 396.4-396.3 219.2 0 396.4 177.1 396.4 396.3 0 219.2-177.2 396.4-396.4 396.4z"/>
	<path id="C" class="s0" aria-label="C"  d="m17.8 474.1c0 161.6 112.4 274.7 271.7 274.7 128.6 0 225.6-71.5 256.3-188.5h-144.7c-22.3 46.2-63.1 69.3-113.1 69.3-80.8 0-136.2-60.1-136.2-155.5 0-95.5 55.4-155.5 136.2-155.5 50 0 90.8 23.1 113.1 69.3h144.7c-30.7-117-127.7-189.4-256.3-189.4-159.3 0-271.7 113.9-271.7 275.6z"/>
	<path id="L" class="s3" aria-label="L"  d="m465 204.7v540.3h304v-101.6h-172.4v-438.7z"/>
</svg>