<?xml version="1.0" encoding="utf-8"?>
<!-- Generator: Adobe Illustrator 24.0.1, SVG Export Plug-In . SVG Version: 6.00 Build 0)  -->
<svg version="1.1" id="Layer_1" xmlns="http://www.w3.org/2000/svg" xmlns:xlink="http://www.w3.org/1999/xlink" x="0px" y="0px"
	 viewBox="0 0 79 79" style="enable-background:new 0 0 79 79;" xml:space="preserve">
	<path d="M75,4v71H4V4H75 M79,0H0v79h79V0L79,0z"/>
	<path class="st0" d="M38.41,58.11H33.7l-9.59-15.7l-9.77,15.7H9.95l11.87-18.65L10.75,22.42h4.59l8.86,14.14l8.94-14.14h4.42
		L26.5,39.31L38.41,58.11z"/>
	<path class="st0" d="M61.12,54.52H60.9c-1.87,2.72-4.67,4.08-8.4,4.08c-3.5,0-6.22-1.2-8.17-3.59c-1.95-2.39-2.92-5.79-2.92-10.21
		c0-4.41,0.98-7.84,2.93-10.28s4.67-3.66,8.15-3.66c3.63,0,6.41,1.32,8.35,3.96h0.32L61,32.89l-0.1-1.88V20.12h4.05v37.99h-3.3
		L61.12,54.52z M53.01,55.21c2.77,0,4.77-0.75,6.02-2.26c1.25-1.51,1.87-3.93,1.87-7.29v-0.85c0-3.79-0.63-6.5-1.89-8.12
		c-1.26-1.62-3.28-2.43-6.04-2.43c-2.38,0-4.2,0.92-5.46,2.77c-1.26,1.85-1.89,4.46-1.89,7.82c0,3.42,0.63,6,1.88,7.74
		C48.75,54.34,50.59,55.21,53.01,55.21z"/>
</svg>
