<svg version="1.2" xmlns="http://www.w3.org/2000/svg" viewBox="0 0 275 247" width="275" height="247">
	<title>Nouveau projet</title>
	<defs>
		<linearGradient id="g1" x1="93.7" y1="-7.7" x2="171.6" y2="206.4" gradientUnits="userSpaceOnUse">
			<stop offset="0" stop-color="#8eb191"/>
			<stop offset=".621" stop-color="#8eb191"/>
			<stop offset="1" stop-color="#1d1d1b"/>
		</linearGradient>
	</defs>
	<style>
		.s0 { fill: url(#g1) } 
	</style>
	<path id="Path 838" fill-rule="evenodd" class="s0" d="m68.4 2c23.4 0 49.2 7.5 66.1 12.8 49.8 15.6 95.4 68.5 93.8 122.3 0.3 0.1 0.5 0.3 0.7 0.4 14.2-16.7 25.8-36 35.6-58.4 2.3-5.3 9.2-3.1 9.3 2.2 1 53.2-52.2 93.9-93.3 117.9-24.4 14.3-51.3 25.1-78.4 33.4-19.2 5.9-47.1 17.5-67.2 12.2-6.6-1.8-5.1-10.4-0.5-13 14.7-8.5 37.6-8.8 54.1-13.4 25.6-7.2 50.4-17.4 74-29.5 18.9-9.6 35-20.7 49-33.4-48 10.2-94.6 27.1-143.4 33.6-13.3 1.8-77.3 3.2-65.8-27.3 8.9-23.6 56.3-23.8 76.3-25.5 28.2-2.4 57.2-3.7 85.9-3.4-28.7-7.1-57.5-13.8-85-25.3-27.8-11.6-83.3-47.9-57.5-85.9 10-14.8 27.4-19.7 46.3-19.7zm152.3 132c-6.9-50.2-45.7-94.6-94-109.3-23.4-7.2-98.3-25.2-95.9 18.3 2.1 38.5 59.6 54.7 88.9 63.8 33.1 10.2 68.5 15 101 27.2zm-171.6 44.4c17.6 0 35.7-4.3 52.7-8.2 30.4-6.8 60.4-16.2 90.7-23.5-29.9-1.6-59.9 0.4-90 1.1-26.4 0.6-56.7 2.3-81.3 12.9-21 9 16.5 17.3 23.8 17.6q2 0.1 4.1 0.1z"/>
</svg>