<?xml version="1.0" encoding="utf-8"?>
<!-- Generator: Adobe Illustrator 24.0.1, SVG Export Plug-In . SVG Version: 6.00 Build 0)  -->
<svg version="1.1" id="Layer_1" xmlns="http://www.w3.org/2000/svg" xmlns:xlink="http://www.w3.org/1999/xlink" x="0px" y="0px"
	 viewBox="0 0 79 79" style="enable-background:new 0 0 79 79;" xml:space="preserve">
	<path d="M75,4v71H4V4H75 M79,0H0v79h79V0L79,0z"/>
	<path class="st0" d="M46.28,57.71l-4.44-11.35H27.53l-4.39,11.35h-4.2l14.11-35.84h3.49l14.04,35.84H46.28z M40.55,42.62
		L36.4,31.56c-0.54-1.4-1.09-3.12-1.66-5.15c-0.36,1.56-0.87,3.28-1.54,5.15L29,42.62H40.55z"/>
	<path class="st0" d="M54.53,23.7c0-0.93,0.23-1.61,0.68-2.04c0.46-0.43,1.03-0.65,1.71-0.65c0.65,0,1.21,0.22,1.68,0.66
		c0.47,0.44,0.71,1.12,0.71,2.03c0,0.91-0.24,1.59-0.71,2.04c-0.47,0.45-1.03,0.67-1.68,0.67c-0.68,0-1.25-0.22-1.71-0.67
		C54.76,25.29,54.53,24.61,54.53,23.7z M58.93,57.71h-4.05V30.95h4.05V57.71z"/>
</svg>
