<?xml version="1.0" encoding="utf-8"?>
<!-- Generator: Adobe Illustrator 24.0.1, SVG Export Plug-In . SVG Version: 6.00 Build 0)  -->
<svg version="1.1" id="Layer_1" xmlns="http://www.w3.org/2000/svg" xmlns:xlink="http://www.w3.org/1999/xlink" x="0px" y="0px"
	 viewBox="0 0 79 79" style="enable-background:new 0 0 79 79;" xml:space="preserve">
	<path d="M75,4v71H4V4H75 M79,0H0v79h79V0L79,0z"/>

	<path class="st0" d="M39.11,31.99c0,3.61-1.23,6.39-3.7,8.34c-2.47,1.95-5.99,2.92-10.58,2.92h-4.2v14.04h-4.15V21.59h9.25
		C34.65,21.59,39.11,25.06,39.11,31.99z M20.63,39.68h3.74c3.68,0,6.34-0.59,7.98-1.78c1.64-1.19,2.47-3.09,2.47-5.71
		c0-2.36-0.77-4.12-2.32-5.27c-1.55-1.16-3.96-1.73-7.23-1.73h-4.64V39.68z"/>
	<path class="st0" d="M63.23,49.98c0,2.49-0.93,4.41-2.78,5.76c-1.86,1.35-4.46,2.03-7.81,2.03c-3.55,0-6.32-0.56-8.3-1.68v-3.76
		c1.29,0.65,2.67,1.16,4.14,1.54c1.47,0.37,2.89,0.56,4.26,0.56c2.12,0,3.74-0.34,4.88-1.01c1.14-0.68,1.71-1.7,1.71-3.09
		c0-1.04-0.45-1.93-1.35-2.67c-0.9-0.74-2.67-1.62-5.29-2.62c-2.49-0.93-4.26-1.74-5.31-2.43c-1.05-0.69-1.83-1.48-2.34-2.36
		s-0.77-1.93-0.77-3.15c0-2.18,0.89-3.9,2.66-5.16c1.77-1.26,4.21-1.89,7.3-1.89c2.88,0,5.7,0.59,8.45,1.76l-1.44,3.3
		c-2.69-1.11-5.12-1.66-7.3-1.66c-1.92,0-3.37,0.3-4.35,0.9c-0.98,0.6-1.46,1.43-1.46,2.49c0,0.72,0.18,1.33,0.55,1.83
		c0.37,0.5,0.96,0.98,1.77,1.44c0.81,0.46,2.38,1.12,4.69,1.98c3.17,1.16,5.32,2.32,6.43,3.49C62.67,46.74,63.23,48.21,63.23,49.98z
		"/>
</svg>
