<svg version="1.2" xmlns="http://www.w3.org/2000/svg" viewBox="0 0 51 31" width="51" height="31">
	<path id="Layer" fill-rule="evenodd" class="s0" d="m37.2 5.4c1.6 1.6 3 3 4.9 3.5q5.1 1.2 8.9-3.8-2.5 10.1-12.7 10.1c-6.3 0-9.2-2.9-11.7-5.4-1.6-1.6-3-3-4.9-3.5q-5.1-1.2-8.9 3.8 2.5-10.1 12.7-10.1c6.3 0 9.2 2.9 11.7 5.4zm-12.7 15.3c1.5 1.5 2.9 2.9 4.8 3.4q5.1 1.3 9-3.8-2.6 10.1-12.8 10.1c-6.3 0-9.2-2.9-11.7-5.4-1.5-1.6-2.9-3-4.9-3.4q-5.1-1.3-8.9 3.8 2.6-10.2 12.8-10.2c6.3 0 9.2 2.9 11.7 5.5z"/>
	<path id="Layer" fill-rule="evenodd" class="s0" d="m76.5 12.8h-4.4v8.6c0 2.3 1.5 2.2 4.4 2.1v3.5c-5.9 0.7-8.3-1-8.3-5.6v-8.6h-3.3v-3.7h3.3v-4.8l3.9-1.1v5.9h4.4zm17-3.7h3.9v17.8h-3.9v-2.5c-1.3 1.9-3.5 3-6.3 3-4.8 0-8.9-4.1-8.9-9.4 0-5.3 4.1-9.4 8.9-9.4 2.8 0 5 1.2 6.3 3zm-5.7 14.7c3.3 0 5.7-2.4 5.7-5.7 0-3.4-2.4-5.8-5.7-5.8-3.2 0-5.6 2.4-5.6 5.8 0 3.3 2.4 5.7 5.6 5.7zm16.1-17.3c-1.4 0-2.5-1.2-2.5-2.5q0-0.5 0.2-0.9 0.2-0.5 0.5-0.8 0.4-0.4 0.8-0.6 0.5-0.2 1-0.2 0.5 0 0.9 0.2 0.5 0.2 0.8 0.6 0.4 0.3 0.5 0.7 0.2 0.5 0.2 1c0 1.3-1.1 2.5-2.4 2.5zm-2 20.5v-17.9h3.9v17.9zm8.4 0v-26.1h3.8v26.1c0 0-3.8 0-3.8 0zm29-17.9h4.1l-5.6 17.9h-3.8l-3.8-12-3.7 12h-3.8l-5.7-17.9h4.1l3.5 12.3 3.8-12.3h3.7l3.7 12.3zm8.9-2.6c-1.4 0-2.5-1.2-2.5-2.5q0-0.5 0.2-0.9 0.2-0.5 0.6-0.8 0.3-0.4 0.8-0.6 0.4-0.2 0.9-0.2 0.5 0 1 0.2 0.4 0.2 0.8 0.6 0.3 0.3 0.5 0.8 0.2 0.4 0.2 0.9c0 1.3-1.1 2.5-2.5 2.5zm-1.9 20.5v-17.9h3.8v17.9zm17.9-18.3c4 0 6.9 2.7 6.9 7.3v11h-3.9v-10.6c0-2.7-1.6-4.1-4-4.1-2.6 0-4.6 1.5-4.6 5.1v9.6h-3.9v-17.9h3.9v2.3c1.2-1.8 3.1-2.7 5.6-2.7zm25.2-6.7h3.9v25h-3.9v-2.6c-1.3 1.9-3.4 3.1-6.2 3.1-4.9 0-9-4.1-9-9.4 0-5.3 4.1-9.4 9-9.4 2.8 0 4.9 1.1 6.2 3zm-5.6 21.8c3.2 0 5.6-2.4 5.6-5.8 0-3.3-2.4-5.7-5.6-5.7-3.3 0-5.7 2.4-5.7 5.7 0 3.4 2.4 5.8 5.7 5.8zm22.5 3.6c-5.4 0-9.5-4.1-9.5-9.4 0-5.3 4.1-9.3 9.5-9.3 3.5 0 6.6 1.8 8 4.6l-3.3 1.9c-0.8-1.7-2.6-2.8-4.7-2.8-3.2 0-5.6 2.4-5.6 5.6 0 3.3 2.4 5.7 5.6 5.7 2.1 0 3.9-1.2 4.8-2.8l3.3 1.9c-1.5 2.8-4.6 4.6-8.1 4.6zm14.5-13.4c0 3.3 9.7 1.3 9.7 7.9 0 3.6-3.2 5.5-7 5.5-3.6 0-6.2-1.6-7.4-4.1l3.4-2c0.5 1.6 2 2.6 4 2.6 1.7 0 3-0.6 3-2 0-3.2-9.7-1.4-9.7-7.8 0-3.3 3-5.4 6.6-5.4 3 0 5.4 1.3 6.7 3.7l-3.3 1.8c-0.7-1.4-1.9-2-3.4-2-1.4 0-2.6 0.6-2.6 1.8zm16.5 0c0 3.3 9.7 1.3 9.7 7.9 0 3.6-3.1 5.5-7 5.5-3.6 0-6.2-1.6-7.3-4.1l3.3-2c0.6 1.6 2 2.6 4 2.6 1.7 0 3.1-0.6 3.1-2 0-3.2-9.7-1.4-9.7-7.8 0-3.3 2.9-5.4 6.6-5.4 2.9 0 5.4 1.3 6.6 3.7l-3.3 1.8c-0.6-1.4-1.9-2-3.3-2-1.4 0-2.7 0.6-2.7 1.8z"/>
</svg>